# xmcd
#
# Track frame offsets:
#	150
#	14357
#	26332
#	41225
#	57147
#	66030
#	77367
#	91967
#	103787
#	112882
#
# Disc length: 1739 seconds
# Revision: 1
# Processed by: cddbd v1.5.2PL0 Copyright (c) Steve Scherf et al.
# Submitted via: dBpowerAMP V12.0
#
DISCID=7006c90a
DTITLE=Anna Kristin Knutsen - I've Got Dreams
DYEAR=1993
DGENRE=Country
TTITLE0=Hold Me In Your Dream
TTITLE1=I've Got Dreams
TTITLE2=Lay Down Beside Me
TTITLE3=The Highway Makes Me Free
TTITLE4=This Train
TTITLE5=Forever On My Mind
TTITLE6=It's You And Me Forever
TTITLE7=My Own Sweet Day
TTITLE8=Friends Forever
TTITLE9=Still Got Your Lovin`
EXTD=
EXTT0=
EXTT1=
EXTT2=
EXTT3=
EXTT4=
EXTT5=
EXTT6=
EXTT7=
EXTT8=
EXTT9=
PLAYORDER=
